<?xml version="1.0" encoding="iso-8859-1"?>
<!-- Generator: Adobe Illustrator 19.0.0, SVG Export Plug-In . SVG Version: 6.00 Build 0)  -->
<svg version="1.1" id="Capa_1" xmlns="http://www.w3.org/2000/svg" xmlns:xlink="http://www.w3.org/1999/xlink" x="0px" y="0px"
	 viewBox="0 0 512 512" style="enable-background:new 0 0 512 512;" xml:space="preserve">
<g>
	<g>
		<path d="M480,80H32C14.368,80,0,94.368,0,112v288c0,17.632,14.368,32,32,32h448c17.632,0,32-14.368,32-32V112
			C512,94.368,497.632,80,480,80z M480,112v62.368C448.704,168,424,143.296,417.632,112H480z M32,112h62.368
			C88,143.296,63.296,168,32,174.368V112z M32,400v-62.368C63.296,344,88,368.704,94.368,400H32z M385.632,400H126.368
			c-7.072-48.864-45.504-87.296-94.368-94.368v-99.264c48.864-7.072,87.296-45.504,94.368-94.368H385.6
			c7.104,48.864,45.536,87.296,94.4,94.368V305.6C431.136,312.704,392.704,351.136,385.632,400z M480,416v-16h-62.368
			C424,368.704,448.704,344,480,337.632V400c0,0,0,0,0.032,0L480,416z"/>
	</g>
</g>
<g>
	<g>
		<path d="M256,192c-35.296,0-64,28.704-64,64s28.704,64,64,64s64-28.704,64-64C320,220.704,291.296,192,256,192z M256,288
			c-17.632,0-32-14.368-32-32c0-17.632,14.368-32,32-32s32,14.368,32,32S273.632,288,256,288z"/>
	</g>
</g>
<g>
</g>
<g>
</g>
<g>
</g>
<g>
</g>
<g>
</g>
<g>
</g>
<g>
</g>
<g>
</g>
<g>
</g>
<g>
</g>
<g>
</g>
<g>
</g>
<g>
</g>
<g>
</g>
<g>
</g>
</svg>
